<?xml version="1.0" encoding="utf-8"?><!-- Uploaded to: SVG Repo, www.svgrepo.com, Generator: SVG Repo Mixer Tools -->
<svg fill="#000000" width="800px" height="800px" viewBox="0 0 24 24" id="google-circle" data-name="Flat Color" xmlns="http://www.w3.org/2000/svg" class="icon flat-color"><circle id="primary" cx="12" cy="12" r="10" style="fill: rgb(0, 0, 0);"></circle><path id="secondary" d="M12,18A6,6,0,1,1,16.24,7.75a1,1,0,0,1-1.4,1.42A4,4,0,0,0,12,8a4,4,0,0,0-4,4,4,4,0,0,0,4,4,4,4,0,0,0,3.87-3H12a1,1,0,0,1,0-2h5a1,1,0,0,1,1,1A6,6,0,0,1,12,18Z" style="fill: rgb(44, 169, 188);"></path></svg>